<svg id="Capa_1" enable-background="new 0 0 512 512" height="512" viewBox="0 0 512 512" width="512" xmlns="http://www.w3.org/2000/svg"><circle cx="256" cy="256" fill="#ffce00" r="256"/><path d="m256 512c141.385 0 256-114.615 256-256 0-4.417-.112-8.808-.333-13.17l-159.397-159.397-9.237 19.791-47.129-47.128-127.811 92.832 104.729 104.73-102.592 243.62c26.814 9.533 55.686 14.722 85.77 14.722z" fill="#ffa300"/><path d="m202.134 119.011h107.731v107.731h-107.731z" fill="#fff"/><path d="m255.595 119.011h54.271v107.731h-54.271z" fill="#e9edf5"/><path d="m444 401.661h-376l107.726-206.02 79.869-4.612 80.679 4.612z" fill="#966857"/><path d="m255.595 186.241v215.42h188.405l-107.726-206.02z" fill="#805142"/><path d="m25.389 367.286c41.404 85.641 129.109 144.714 230.611 144.714s189.207-59.073 230.611-144.714z" fill="#805142"/><path d="m255.566 367.286v144.713c.145 0 .289.001.434.001 101.502 0 189.207-59.073 230.611-144.714z" fill="#5e382c"/><path d="m336.274 195.641-10.469-20.02h-139.61l-10.469 20.02h5.756c5.782 0 10.469 4.687 10.469 10.469v12.105c0 14.687 11.906 26.594 26.594 26.594 14.687 0 26.594-11.906 26.594-26.594v-8.834c0-7.588 6.151-13.739 13.74-13.739 7.588 0 13.74 6.151 13.74 13.739v46.114c0 14.491 11.362 26.74 25.847 27.137 15.029.412 27.341-11.648 27.341-26.583v-49.939c-.002-5.782 4.685-10.469 10.467-10.469z" fill="#ff873c"/><path d="m325.805 175.62h-70.21v20.432c1.054-.259 2.149-.411 3.283-.411 7.588 0 13.74 6.151 13.74 13.74v46.114c0 14.491 11.362 26.74 25.847 27.137 15.029.412 27.341-11.648 27.341-26.583v-49.939c0-5.782 4.687-10.469 10.469-10.469z" fill="#e56022"/><path d="m315.281 158.731c25.814 0 46.74-20.926 46.74-46.74s-20.926-46.74-46.74-46.74c-3.993 0-7.868.501-11.568 1.443-9.397-16.637-27.243-27.87-47.713-27.87s-38.316 11.232-47.713 27.87c-3.7-.942-7.575-1.443-11.568-1.443-25.814 0-46.74 20.926-46.74 46.74s20.926 46.74 46.74 46.74z" fill="#e9edf5"/><path d="m315.281 65.251c-3.993 0-7.868.501-11.568 1.443-9.397-16.637-27.243-27.87-47.713-27.87-.135 0-.27.006-.405.007v119.9h59.686c25.814 0 46.74-20.926 46.74-46.74s-20.926-46.74-46.74-46.74z" fill="#cdd2e1"/></svg>